# xmcd
#
# Track frame offsets: 
#        150
#        29621
#        46744
#        61623
#        77830
#        99334
#        114796
#        133887
#        149725
#        176488
#        194013
#        214040
#
# Disc length: 3269 seconds
#
# Revision: 1
# Processed by: cddbd v1.5.2PL0 Copyright (c) Steve Scherf et al.
# Submitted via: ExactAudioCopy v0.99pb5
#
DISCID=a80cc30c
DTITLE=Gerhard Weinberger - J.S. Bach - Organ Works Vol. 21 disc1
DYEAR=2008
DGENRE=Organ
TTITLE0=Wo Gott der Herr nicht bei uns hält, organ     BWV 1128
TTITLE1=The Art of fugue   Contrapunctus 1  (Simple fugue, 4 voice)  B
TTITLE1=WV 1080 
TTITLE2=The Art of fugue   Contrapunctus 2  (Simple fugue, 4 voice)  B
TTITLE2=WV 1080 
TTITLE3=The Art of fugue   Contrapunctus 3  (Simple fugue, 4 voice - th
TTITLE3=eme inverted)  BWV 1080
TTITLE4=The Art of fugue   Contrapunctus 4  (Simple fugue, 4 voice - th
TTITLE4=eme inverted)  BWV 1080
TTITLE5=The Art of fugue   Contrapunctus 5  (Fugue, 4 voice in contrar
TTITLE5=y motion)  BWV 1080
TTITLE6=The Art of fugue   Contrapunctus 6  (Fugue, 4 voice in contrar
TTITLE6=y motion in Stylo Francese with diminution)  BWV 1080
TTITLE7=The Art of fugue   Contrapunctus 7  (Fugue, 4 voice in contrar
TTITLE7=y motion with double augmentation)  BWV 1080
TTITLE8=The Art of fugue   Contrapunctus 8  (Triple fugue, three voice
TTITLE8=)  BWV 1080
TTITLE9=The Art of fugue   Contrapunctus 9  (Double fugue, 4 voice in 
TTITLE9=the 12th)  BWV 1080 
TTITLE10=The Art of fugue   Contrapunctus 10  (Double fugue, 4 voice i
TTITLE10=n the 10th)  BWV 1080
TTITLE11=The Art of fugue   Contrapunctus 11  (Triple fugue, 4 voice) 
TTITLE11=BWV 1080
EXTD=
EXTT0=
EXTT1=
EXTT2=
EXTT3=
EXTT4=
EXTT5=
EXTT6=
EXTT7=
EXTT8=
EXTT9=
EXTT10=
EXTT11=
PLAYORDER=
